<?xml version="1.0" encoding="utf-8"?>
<!-- Generator: Adobe Illustrator 18.0.0, SVG Export Plug-In . SVG Version: 6.00 Build 0)  -->
<!DOCTYPE svg PUBLIC "-//W3C//DTD SVG 1.1//EN" "http://www.w3.org/Graphics/SVG/1.1/DTD/svg11.dtd">
<svg version="1.1" id="Layer_1" xmlns="http://www.w3.org/2000/svg" xmlns:xlink="http://www.w3.org/1999/xlink" x="0px" y="0px"
	 viewBox="0 0 502.6 165.8" enable-background="new 0 0 502.6 165.8" xml:space="preserve">
<g>
	<path fill="#FFFFFF" d="M345.1,38.4c8.5,0,15.1-6.6,15.1-14.9c0-8.5-6.6-15.1-15.1-15.1C337,8.4,330,15,330,23.5
		C330,31.8,337,38.4,345.1,38.4z"/>
	<path fill="#FFFFFF" d="M468.5,138.5c-6.4-7.4-37.6-40.6-42.1-47.8c7.2-9.1,11.2-13.2,15.5-17.8c6.6-7,10.5-8.5,17.4-9.9l7.2-1.4
		v-6.6l-42.6,1.9v6.6l4.8,0.8c3.7,0.6,2.9,1.9,0.6,5.6c-3.3,5.4-10.6,15.3-13.7,19.4c-2.5,3.1-6,6.2-11.2,7.4V5.8
		c-13.4,2.9-29.2,5.8-38.1,7.2v6c13.2,1,13.7,1.2,13.7,13.4v94c0,10.3-0.8,12.4-10.8,13.6c-9.1-1.2-9.9-3.3-9.9-13.6V53.7
		c-13,2.9-26.7,5.8-38.9,7.4v5.6c13.2,1.4,13.6,1.7,13.6,14.3v45.5c0,11.1-0.9,12.7-12.1,13.9c-11.2-1.2-12.1-2.7-12.1-13.9V0.3
		c-13.4,2.9-30,5.8-38.9,7.2v6c13.2,1,13.6,1.2,13.6,13.4v61.4C279,58,252.3,35,220.3,35c-21.7,0-41,10.6-52.9,26.9
		c-1.9-4.7-6.9-8.2-13-8.2c-5.2,0-10.8,2.1-14.4,6.4c-4.1,4.9-2,2.2-5.3,6.4l-0.4,0.8V53.7c-13.6,2.9-26.9,5.8-38.9,7.4v1.2
		c-6.2-9.5-15.9-15.8-28.8-15.8c-4.8,0-12.9,1.6-19.1,4.1l-8.9,4.1V0C25,2.9,9.1,5.8,0,7.2v6c13,0.8,13.4,1,13.4,13.2V143
		c13.9,5.6,26.1,11.3,37.4,11.3c30.8,0,52.4-33,52.4-63.4c0-8.5-1.8-16.8-5.3-23.9c10.7,1.2,11,2.3,11,14v45.7
		c0,11.6-1,12.6-14.1,13.9v6.6h54.4l1.8-6.6c-15.9-1.2-17-2.3-17-13.9V82.5c1.3-3.8,4-6.7,7.5-6.7c1.1,0,2.2,0.2,3.3,0.5
		c2.1,3.2,5.8,5.2,9.8,5.2c0.3,0,0.5,0,0.8,0c0.6,0,1.3,0,2.1-0.2c-1.9,6.1-2.9,12.5-2.9,19.2c0,36.1,29.3,65.4,65.4,65.4
		c32,0,58.7-23,64.3-53.5v14.1c0,11.8-1.9,13-8.2,14.1l1.6,6.6h41.9h4.3h40.2h9.3h45.7v-6.6c-13.9-1.2-14.9-2.3-14.9-14.1v-22.3h1
		c1.4-0.2,2.9,0.6,5.2,3.9l38.4,45.5H484V147l-4.1-0.8C475.5,145.3,473,143.5,468.5,138.5z M54.6,140.2c-7.9-0.4-13.4-4.4-14.7-7.3
		c-0.8-1.9-1.2-4.1-1.2-7V64.2c2.9-1.2,11.2-2.7,13.2-2.7C67.6,61.5,81,71.9,81,96.9C81,122.5,66.4,140.2,54.6,140.2z M249.3,145.3
		c-3.9,2.6-25.1,15-52.3,1.6c-30.1-14.8-26.2-43.4-26.2-43.4s0-1.2,0.3-3.1c7.2-30.9,42-37.7,45.2-38.3c0.1,0,0.1,0,0.2,0
		c0,0,0.1,0,0.1,0c11.3-2.1,19.6-7.2,20.3-13c21.1,7.5,36.2,27.6,36.2,51.3C273,119,263.6,135.5,249.3,145.3z"/>
	<path fill="#FFFFFF" d="M491.9,149.3l-0.9-0.6c-0.4-0.2-0.7-0.5-0.9-0.7c-0.2-0.2-0.3-0.5-0.3-0.7c0-0.3,0.1-0.5,0.4-0.7
		c0.3-0.2,0.6-0.3,1-0.3c0.7,0,1.4,0.3,2,0.9v-1.4c-0.6-0.4-1.3-0.6-2-0.6c-0.8,0-1.4,0.2-1.8,0.6c-0.5,0.4-0.7,1-0.7,1.7
		c0,0.5,0.1,0.9,0.4,1.2c0.2,0.3,0.7,0.7,1.3,1.1l0.9,0.6c0.8,0.5,1.1,1,1.1,1.5c0,0.3-0.1,0.6-0.4,0.8c-0.3,0.2-0.6,0.3-1,0.3
		c-0.9,0-1.7-0.4-2.3-1.3v1.6c0.7,0.5,1.5,0.8,2.3,0.8c0.7,0,1.3-0.2,1.8-0.7c0.5-0.4,0.7-1,0.7-1.7
		C493.4,150.7,492.9,149.9,491.9,149.3z"/>
	<polygon fill="#FFFFFF" points="500.6,145.4 498.6,152 496.5,145.4 494.4,145.4 494.4,153.6 495.7,153.6 495.7,146.6 497.9,153.6 
		499.2,153.6 501.3,146.7 501.3,153.6 502.6,153.6 502.6,145.4 	"/>
</g>
</svg>
