<?xml version="1.0" encoding="utf-8"?>
<!-- Generator: Adobe Illustrator 18.0.0, SVG Export Plug-In . SVG Version: 6.00 Build 0)  -->
<!DOCTYPE svg PUBLIC "-//W3C//DTD SVG 1.1//EN" "http://www.w3.org/Graphics/SVG/1.1/DTD/svg11.dtd">
<svg version="1.1" id="Layer_1" xmlns="http://www.w3.org/2000/svg" xmlns:xlink="http://www.w3.org/1999/xlink" x="0px" y="0px"
	 viewBox="0 0 100 100" enable-background="new 0 0 100 100" xml:space="preserve">
<g>
	<path fill="#66C1ED" d="M96.3,47.9C95.4,46.8,75.4,22,50,22C24.6,22,4.6,46.8,3.7,47.9L2,50l1.7,2.2C4.6,53.2,24.6,78,50,78
		c25.4,0,45.4-24.8,46.3-25.8L98,50L96.3,47.9z M25.8,37.2c-2.1,3.9-3.2,8.2-3.2,12.7c0,4.5,1.1,8.8,3.2,12.7
		C18.9,58.2,13.6,52.8,11,50C13.6,47.2,18.9,41.8,25.8,37.2 M50,29.6c11.3,0,20.4,9.2,20.4,20.4S61.3,70.4,50,70.4
		c-11.2,0-20.4-9.2-20.4-20.4S38.8,29.6,50,29.6 M74.1,62.8c2.1-3.9,3.2-8.3,3.2-12.8c0-4.5-1.1-8.8-3.2-12.7
		C81.1,41.8,86.4,47.2,89,50C86.4,52.8,81.1,58.2,74.1,62.8"/>
	<path fill="#66C1ED" d="M50,60.5c5.8,0,10.5-4.7,10.5-10.5c0-5.8-4.7-10.5-10.5-10.5c-0.3,0-0.6,0-1,0.1l-1,0.1l0.1,1
		c0,0.3,0,0.5,0,0.7c0,4.2-3.4,7.6-7.6,7.6h-1v1C39.5,55.8,44.2,60.5,50,60.5"/>
</g>
</svg>
