<?xml version="1.0" encoding="utf-8"?>
<!-- Generator: Adobe Illustrator 18.0.0, SVG Export Plug-In . SVG Version: 6.00 Build 0)  -->
<!DOCTYPE svg PUBLIC "-//W3C//DTD SVG 1.1//EN" "http://www.w3.org/Graphics/SVG/1.1/DTD/svg11.dtd">
<svg version="1.1" id="Layer_1" xmlns="http://www.w3.org/2000/svg" xmlns:xlink="http://www.w3.org/1999/xlink" x="0px" y="0px"
	 viewBox="0 0 100 100" enable-background="new 0 0 100 100" xml:space="preserve">
<path fill="#666666" d="M100.2,18.9c-3.7,1.7-7.7,2.8-11.8,3.3c4.3-2.6,7.5-6.6,9-11.4c-4,2.4-8.4,4.1-13.1,5c-3.7-4-9.1-6.5-15-6.5
	c-11.4,0-20.5,9.2-20.5,20.5c0,1.6,0.2,3.2,0.6,4.7C32.2,33.7,17,25.5,6.9,13c-1.8,3.1-2.8,6.6-2.8,10.3c0,7.1,3.6,13.4,9.2,17.1
	c-3.4-0.1-6.6-1-9.3-2.6c0,0.1,0,0.1,0,0.2c0,10,7.1,18.3,16.5,20.1C18.7,58.8,16.8,59,15,59c-1.3,0-2.6-0.1-3.9-0.3
	c2.6,8.2,10.2,14.1,19.2,14.3c-7,5.5-15.9,8.8-25.6,8.8c-1.7,0-3.3-0.1-4.9-0.3c9.1,5.8,19.9,9.2,31.5,9.2
	c37.8,0,58.5-31.3,58.5-58.5c0-0.9,0-1.8,0-2.7C93.9,26.7,97.4,23.1,100.2,18.9z"/>
</svg>
