<?xml version="1.0" encoding="utf-8"?>
<!-- Generator: Adobe Illustrator 18.0.0, SVG Export Plug-In . SVG Version: 6.00 Build 0)  -->
<!DOCTYPE svg PUBLIC "-//W3C//DTD SVG 1.1//EN" "http://www.w3.org/Graphics/SVG/1.1/DTD/svg11.dtd">
<svg version="1.1" id="Layer_1" xmlns="http://www.w3.org/2000/svg" xmlns:xlink="http://www.w3.org/1999/xlink" x="0px" y="0px"
	 viewBox="0 0 100 100" enable-background="new 0 0 100 100" xml:space="preserve">
<g>
	<path fill="#66C1ED" d="M88.1,33v-4.7c0-1.7-1.4-3.1-3.1-3.1H15c-1.7,0-3.1,1.4-3.1,3.1V33h7.8v7.8h-7.8v7.8h7.8v7.8h-7.8v7.8h7.8
		v7.8h-7.8v4.7c0,1.7,1.4,3.1,3.1,3.1h70c1.7,0,3.1-1.4,3.1-3.1v-4.7h-7.8v-7.8h7.8v-7.8h-7.8v-7.8h7.8v-7.8h-7.8V33H88.1z
		 M41.4,64.2V40.8l19.5,11.7L41.4,64.2z"/>
</g>
</svg>
