<?xml version="1.0" encoding="utf-8"?>
<!-- Generator: Adobe Illustrator 18.0.0, SVG Export Plug-In . SVG Version: 6.00 Build 0)  -->
<!DOCTYPE svg PUBLIC "-//W3C//DTD SVG 1.1//EN" "http://www.w3.org/Graphics/SVG/1.1/DTD/svg11.dtd">
<svg version="1.1" id="Layer_1" xmlns="http://www.w3.org/2000/svg" xmlns:xlink="http://www.w3.org/1999/xlink" x="0px" y="0px"
	 viewBox="0 0 100 100" enable-background="new 0 0 100 100" xml:space="preserve">
<g>
	<path fill="#666666" d="M25.8,92.4V35.2h-19v57.2H25.8L25.8,92.4z M16.3,27.4c6.6,0,10.8-4.4,10.8-9.8c-0.2-5.8-4.2-10-10.7-10
		c-6.6,0-10.8,4.2-10.8,9.8S9.7,27.4,16.3,27.4L16.3,27.4L16.3,27.4z"/>
	<path fill="#666666" d="M36.3,92.4h19v-32c0-1.7,0.2-3.4,0.7-4.6c1.3-3.4,4.6-6.9,9.8-6.9c6.9,0,9.7,5.2,9.7,12.9v30.6h19V59.6
		c0-17.6-9.3-25.7-21.8-25.7c-10.3,0-14.7,5.8-17.3,9.7h0.2v-8.3H36.3C36.6,40.6,36.3,92.4,36.3,92.4L36.3,92.4z"/>
</g>
</svg>
