<?xml version="1.0" encoding="utf-8"?>
<!-- Generator: Adobe Illustrator 18.0.0, SVG Export Plug-In . SVG Version: 6.00 Build 0)  -->
<!DOCTYPE svg PUBLIC "-//W3C//DTD SVG 1.1//EN" "http://www.w3.org/Graphics/SVG/1.1/DTD/svg11.dtd">
<svg version="1.1" id="Layer_1" xmlns="http://www.w3.org/2000/svg" xmlns:xlink="http://www.w3.org/1999/xlink" x="0px" y="0px"
	 viewBox="0 0 100 100" enable-background="new 0 0 100 100" xml:space="preserve">
<g>
	<path fill="#666666" d="M59.6,51c0-5.1-4.1-9.1-9.1-9.1c-5.1,0-9.1,4.1-9.1,9.1c0,5.1,4.1,9.1,9.1,9.1C55.5,60.1,59.6,56,59.6,51z"
		/>
	<g>
		<path fill="#666666" d="M50.5,29.1c4.7,0,9.1,1.5,12.7,4.1h17.2h15.8v-6.5c0-12.8-10.4-23.1-23.1-23.1H26.9
			C14.1,3.5,3.7,13.9,3.7,26.6v6.4h34C41.3,30.5,45.7,29.1,50.5,29.1z M69.4,17.6c0-1.4,1.1-2.6,2.6-2.6h8c1.5,0,2.6,1.2,2.6,2.6v8
			c0,1.4-1.1,2.6-2.6,2.6h-8c-1.5,0-2.6-1.2-2.6-2.6L69.4,17.6L69.4,17.6z"/>
		<path fill="#666666" d="M72.5,51c0,12.1-9.9,21.9-21.9,21.9s-22-9.8-22-21.9c0-3.3,0.8-6.5,2.1-9.3H3.7v31.7
			c0,12.8,10.4,23.1,23.1,23.1h46.3c12.8,0,23.1-10.4,23.1-23.1V41.7H70.4C71.7,44.5,72.5,47.6,72.5,51z"/>
	</g>
</g>
</svg>
